<?xml version="1.0" encoding="utf-8"?>
<!-- Generator: Adobe Illustrator 26.0.3, SVG Export Plug-In . SVG Version: 6.00 Build 0)  -->
<svg version="1.1" id="Layer_1" xmlns="http://www.w3.org/2000/svg" xmlns:xlink="http://www.w3.org/1999/xlink" x="0px" y="0px"
	 viewBox="0 0 595.28 841.89" style="enable-background:new 0 0 595.28 841.89;" xml:space="preserve">
<style type="text/css">
	.st0{fill:#FFFFFF;stroke:#000000;stroke-width:7;stroke-miterlimit:10;}
	.st1{fill:none;stroke:#000000;stroke-width:7;stroke-miterlimit:10;}
	.st2{fill:#010101;}
</style>
<path class="st0" d="M88.47,389.01c27.53-11.32,31.17-17.87,29.45-21.77c-2.28-5.16-14.07-5.75-15.59-11.41
	c-1.88-7,13.43-16,23.68-15c9.05,0.89,11.82,12.15,17.33,11.6c5.26-0.53,6.94-8.91,11.55-12.9c5.08-4.4,9.08,7.74,15.59,3.26
	c15.18-10.45,5.87,6.05,3.27,8.45"/>
<path class="st1" d="M224.77,369.52"/>
<path class="st1" d="M202.82,366.26"/>
<path class="st1" d="M202.82,356.81"/>
<path class="st0" d="M188.35,342.46c3.92-2.28-10.11,9.78,0.04,8.15"/>
<path class="st1" d="M199.96,330.58c-4.81,16.37-3.37,20.14-1.16,20.54c2.62,0.47,7.63-3.55,8.09-3.91c4.54-3.64,5.75-7.7,5.78-7.5
	c0.11,0.88-4.7,9.41,0,9.46c2.29,0.02,5.27-0.28,6.93-0.98c5.12-2.15,5.85-6.51,5.78-6.52c-0.06-0.01-2.7,2.74-1.73,5.22
	c1.07,2.73,6.27,4.46,10.97,5.54"/>
<g>
	<g>
		<path class="st2" d="M158.26,359.74h2.37l5.04,10.89l4.35-10.89h3.59l-6.01,13.89h-3.52l-4.53-9.71l-4.74,9.71h-3.52l-6.01-13.89
			h3.59l4.35,10.89L158.26,359.74z"/>
		<path class="st2" d="M178.12,373.26c-1.15-0.34-2.03-0.85-2.63-1.51c-0.6-0.67-0.91-1.47-0.91-2.41v-1.12
			c0-0.98,0.29-1.82,0.87-2.51c0.58-0.69,1.42-1.22,2.53-1.59c1.1-0.36,2.44-0.54,3.99-0.54c1.47,0,2.72,0.21,3.76,0.62
			c1.04,0.41,1.83,1.01,2.38,1.8c0.55,0.78,0.82,1.72,0.82,2.82v0.65h-11.84v-1.57h8.56c-0.1-0.81-0.47-1.44-1.11-1.89
			c-0.64-0.45-1.49-0.67-2.56-0.67c-1.31,0-2.32,0.24-3.04,0.73c-0.72,0.48-1.07,1.17-1.07,2.05v1.26c0,0.82,0.38,1.45,1.15,1.89
			s1.86,0.66,3.27,0.66c0.7,0,1.39-0.08,2.08-0.24s1.3-0.38,1.84-0.67l2.27,1.28c-0.87,0.47-1.84,0.84-2.93,1.09
			s-2.17,0.39-3.27,0.39C180.65,373.77,179.27,373.6,178.12,373.26z"/>
		<path class="st2" d="M191.93,359.74h3.45v13.89h-3.45V359.74z M196.94,373.33c-0.81-0.3-1.41-0.71-1.79-1.26l0.24-2.07
			c0,0.43,0.14,0.79,0.41,1.09c0.27,0.3,0.66,0.53,1.18,0.69s1.14,0.24,1.87,0.24c1.14,0,2.02-0.2,2.65-0.59
			c0.63-0.39,0.94-0.94,0.94-1.66v-2.15c0-0.73-0.31-1.29-0.94-1.69s-1.51-0.6-2.65-0.6c-0.73,0-1.36,0.08-1.87,0.23
			s-0.91,0.38-1.18,0.67c-0.27,0.3-0.41,0.65-0.41,1.07l-0.36-1.91c0.53-0.58,1.22-1.03,2.08-1.34c0.86-0.31,1.81-0.47,2.86-0.47
			c1.24,0,2.3,0.16,3.19,0.47c0.89,0.32,1.56,0.78,2.02,1.38c0.46,0.61,0.69,1.33,0.69,2.19v2.16c0,0.84-0.24,1.56-0.71,2.16
			s-1.17,1.06-2.08,1.37c-0.91,0.32-2.01,0.47-3.28,0.47C198.71,373.77,197.75,373.63,196.94,373.33z"/>
		<path class="st2" d="M216.96,359.74h3.45v13.89h-3.45V359.74z M219.29,371.78h5.57c1.82,0,3.22-0.27,4.22-0.8
			c1-0.53,1.5-1.28,1.5-2.25v-4.09c0-0.97-0.5-1.72-1.5-2.25c-1-0.53-2.41-0.8-4.22-0.8h-5.57v-1.85h5.47
			c1.97,0,3.66,0.19,5.06,0.58c1.4,0.39,2.46,0.96,3.2,1.7c0.73,0.75,1.1,1.64,1.1,2.69v3.94c0,1.05-0.37,1.95-1.1,2.69
			c-0.73,0.75-1.8,1.31-3.21,1.7c-1.4,0.39-3.09,0.58-5.07,0.58h-5.45V371.78z"/>
		<path class="st2" d="M240.66,373.26c-1.15-0.34-2.03-0.85-2.63-1.51c-0.6-0.67-0.91-1.47-0.91-2.41v-1.12
			c0-0.98,0.29-1.82,0.87-2.51c0.58-0.69,1.42-1.22,2.53-1.59c1.1-0.36,2.44-0.54,3.99-0.54c1.47,0,2.72,0.21,3.76,0.62
			c1.04,0.41,1.83,1.01,2.38,1.8c0.55,0.78,0.82,1.72,0.82,2.82v0.65h-11.84v-1.57h8.56c-0.1-0.81-0.47-1.44-1.11-1.89
			c-0.64-0.45-1.49-0.67-2.56-0.67c-1.31,0-2.32,0.24-3.04,0.73c-0.72,0.48-1.07,1.17-1.07,2.05v1.26c0,0.82,0.38,1.45,1.15,1.89
			s1.86,0.66,3.27,0.66c0.7,0,1.39-0.08,2.08-0.24s1.3-0.38,1.84-0.67l2.27,1.28c-0.87,0.47-1.84,0.84-2.93,1.09
			s-2.17,0.39-3.27,0.39C243.2,373.77,241.81,373.6,240.66,373.26z"/>
		<path class="st2" d="M257.77,373.6c-0.91-0.11-1.76-0.29-2.55-0.52c-0.79-0.23-1.52-0.52-2.18-0.86l2.05-1.42
			c0.95,0.41,1.89,0.71,2.83,0.92c0.94,0.2,1.86,0.31,2.77,0.31c1.36,0,2.39-0.12,3.07-0.36c0.68-0.24,1.02-0.6,1.02-1.07
			c0-0.32-0.19-0.56-0.56-0.72c-0.37-0.16-0.83-0.27-1.39-0.32s-1.33-0.1-2.33-0.15c-0.09,0-0.19,0-0.29,0s-0.2-0.01-0.29-0.01
			c-0.05,0-0.09,0-0.14,0c-0.05,0-0.09,0-0.14,0c-1.14-0.05-2.1-0.15-2.89-0.28c-0.79-0.14-1.45-0.39-1.97-0.77
			c-0.52-0.38-0.79-0.91-0.79-1.61c0-0.7,0.25-1.28,0.76-1.75c0.51-0.46,1.26-0.81,2.27-1.05c1-0.23,2.26-0.35,3.77-0.35
			c0.91,0,1.79,0.05,2.61,0.14c0.83,0.1,1.62,0.24,2.38,0.43s1.48,0.42,2.18,0.71l-2.08,1.42c-0.88-0.32-1.75-0.56-2.6-0.72
			s-1.68-0.24-2.5-0.24c-1.17,0-2.05,0.11-2.64,0.34s-0.88,0.56-0.88,1.02c0,0.27,0.17,0.47,0.5,0.6c0.33,0.13,0.75,0.22,1.26,0.27
			c0.51,0.04,1.23,0.08,2.17,0.11c0.07,0.01,0.14,0.01,0.21,0.01c0.07,0,0.15,0,0.23,0.01c0.03,0,0.07,0,0.1,0
			c0.03,0,0.07,0,0.1,0.01c1.23,0.04,2.28,0.14,3.14,0.28c0.86,0.14,1.59,0.42,2.17,0.83c0.59,0.41,0.88,1.01,0.88,1.8
			c0,0.71-0.27,1.3-0.81,1.77c-0.54,0.47-1.36,0.82-2.45,1.06c-1.09,0.24-2.46,0.35-4.1,0.35
			C259.65,373.77,258.67,373.72,257.77,373.6z"/>
		<path class="st2" d="M270.71,359.74h3.45v1.95h-3.45V359.74z M270.71,363.72h3.45v9.92h-3.45V363.72z"/>
		<path class="st2" d="M279.95,373.33c-0.91-0.32-1.6-0.78-2.07-1.38s-0.71-1.33-0.71-2.18v-2.19c0-0.85,0.23-1.58,0.69-2.19
			s1.14-1.07,2.02-1.38c0.89-0.31,1.95-0.47,3.19-0.47c1.04,0,1.99,0.15,2.85,0.46s1.56,0.74,2.09,1.29l-0.35,2.03
			c0-0.42-0.14-0.78-0.41-1.08s-0.66-0.53-1.18-0.68c-0.51-0.16-1.14-0.23-1.87-0.23c-1.14,0-2.02,0.2-2.65,0.6
			c-0.63,0.4-0.94,0.96-0.94,1.69v2.16c0,0.72,0.31,1.28,0.94,1.67s1.51,0.59,2.65,0.59c0.73,0,1.36-0.08,1.87-0.24
			c0.51-0.16,0.91-0.4,1.18-0.7s0.41-0.67,0.41-1.1l0.24,2.09c-0.35,0.49-0.92,0.9-1.72,1.23c-0.8,0.33-1.77,0.5-2.94,0.5
			C281.96,373.8,280.86,373.65,279.95,373.33z M280.02,377.25c-1.04-0.28-1.85-0.67-2.43-1.17l2.33-1.19
			c0.45,0.35,0.99,0.62,1.62,0.81s1.28,0.29,1.97,0.29c1.32,0,2.34-0.21,3.06-0.62c0.72-0.41,1.08-0.99,1.08-1.74v-9.91h3.45v9.62
			c0,0.91-0.3,1.69-0.89,2.34c-0.59,0.65-1.45,1.14-2.58,1.48s-2.49,0.51-4.08,0.51C282.24,377.66,281.06,377.52,280.02,377.25z"/>
		<path class="st2" d="M294.62,363.72h3.45v9.92h-3.45V363.72z M305.28,367.62c0-0.7-0.32-1.24-0.96-1.62
			c-0.64-0.38-1.54-0.57-2.71-0.57c-1.13,0-2,0.17-2.61,0.51c-0.62,0.34-0.92,0.81-0.92,1.42l-0.36-1.91
			c0.54-0.6,1.25-1.06,2.12-1.38c0.87-0.33,1.84-0.49,2.9-0.49c1.9,0,3.38,0.35,4.42,1.06s1.56,1.7,1.56,2.98v6.02h-3.45V367.62z"/>
	</g>
</g>
<path class="st2" d="M143.34,349.63"/>
</svg>
